<svg version="1.0" xmlns="http://www.w3.org/2000/svg"
 width="200.000000pt" height="198.000000pt" viewBox="0 0 200.000000 198.000000"
 preserveAspectRatio="xMidYMid meet">

<g transform="translate(0.000000,198.000000) scale(0.100000,-0.100000)"
fill="#fff" stroke="none">
<path d="M0 1920 l0 -60 607 -2 607 -3 11 -50 10 -50 383 -3 382 -2 0 115 0
115 -1000 0 -1000 0 0 -60z"/>
<path d="M0 1570 l0 -60 640 0 640 0 0 -24 c0 -13 3 -38 6 -55 l7 -31 353 0
354 0 0 115 0 115 -1000 0 -1000 0 0 -60z"/>
<path d="M0 1225 l0 -55 648 -2 647 -3 3 -57 3 -58 349 0 350 0 0 115 0 115
-1000 0 -1000 0 0 -55z"/>
<path d="M5 878 c4 -29 9 -56 12 -61 2 -4 286 -7 631 -7 l627 0 -3 -22 c-1
-13 -5 -38 -8 -56 l-5 -32 348 2 347 3 13 45 c7 25 16 75 20 113 l6 67 -998 0
-997 0 7 -52z"/>
<path d="M98 563 c4 -10 16 -35 27 -55 l19 -38 526 0 c290 0 529 -3 532 -6 3
-3 0 -29 -8 -57 -8 -29 -14 -53 -14 -54 0 -2 131 -3 290 -3 l290 0 41 53 c22
28 56 80 75 115 l35 62 -910 0 c-863 0 -910 -1 -903 -17z"/>
<path d="M387 206 c15 -13 51 -37 79 -55 l51 -31 287 0 c167 0 286 -4 286 -9
0 -5 -9 -31 -20 -57 -11 -26 -18 -49 -16 -52 11 -11 183 23 270 52 99 34 216
97 276 146 l35 29 -638 1 -639 0 29 -24z"/>
</g>
</svg>
